{
	"asset":{
		"generator":"Khronos glTF Blender I/O v4.0.44",
		"version":"2.0"
	},
	"scene":0,
	"scenes":[
		{
			"name":"Scene",
			"nodes":[
				0
			]
		}
	],
	"nodes":[
		{
			"mesh":0,
			"name":"cement_pole",
			"rotation":[
				0,
				0,
				-1,
				0
			],
			"scale":[
				-1.2400000095367432,
				-1.9600000381469727,
				-1.8999998569488525
			]
		}
	],
	"materials":[
		{
			"doubleSided":true,
			"name":"Material",
			"pbrMetallicRoughness":{
				"baseColorFactor":[
					0.13563193380832672,
					0.15582337975502014,
					0.18141387403011322,
					1
				],
				"metallicFactor":0,
				"roughnessFactor":0.39000004529953003
			}
		}
	],
	"meshes":[
		{
			"name":"Cement_Pole",
			"primitives":[
				{
					"attributes":{
						"POSITION":0,
						"NORMAL":1,
						"TEXCOORD_0":2
					},
					"indices":3,
					"material":0
				}
			]
		}
	],
	"accessors":[
		{
			"bufferView":0,
			"componentType":5126,
			"count":2196,
			"max":[
				0.056227244436740875,
				0.41445663571357727,
				0.056227508932352066
			],
			"min":[
				-0.056227780878543854,
				1.7715454305289313e-05,
				-0.056227512657642365
			],
			"type":"VEC3"
		},
		{
			"bufferView":1,
			"componentType":5126,
			"count":2196,
			"type":"VEC3"
		},
		{
			"bufferView":2,
			"componentType":5126,
			"count":2196,
			"type":"VEC2"
		},
		{
			"bufferView":3,
			"componentType":5123,
			"count":8352,
			"type":"SCALAR"
		}
	],
	"bufferViews":[
		{
			"buffer":0,
			"byteLength":26352,
			"byteOffset":0,
			"target":34962
		},
		{
			"buffer":0,
			"byteLength":26352,
			"byteOffset":26352,
			"target":34962
		},
		{
			"buffer":0,
			"byteLength":17568,
			"byteOffset":52704,
			"target":34962
		},
		{
			"buffer":0,
			"byteLength":16704,
			"byteOffset":70272,
			"target":34963
		}
	],
	"buffers":[
		{
			"byteLength":86976,
			"uri":"cement_pole.bin"
		}
	]
}
