{
	"asset":{
		"generator":"Khronos glTF Blender I/O v4.0.44",
		"version":"2.0"
	},
	"scene":0,
	"scenes":[
		{
			"name":"Scene",
			"nodes":[
				0
			]
		}
	],
	"nodes":[
		{
			"mesh":0,
			"name":"cement_pole"
		}
	],
	"materials":[
		{
			"name":"cement_pole.001",
			"normalTexture":{
				"index":0
			},
			"pbrMetallicRoughness":{
				"baseColorTexture":{
					"index":1
				}
			}
		}
	],
	"meshes":[
		{
			"name":"Cemenet_Pole",
			"primitives":[
				{
					"attributes":{
						"POSITION":0,
						"NORMAL":1,
						"TEXCOORD_0":2
					},
					"indices":3,
					"material":0
				}
			]
		}
	],
	"textures":[
		{
			"sampler":0,
			"source":0
		},
		{
			"sampler":0,
			"source":1
		}
	],
	"images":[
		{
			"mimeType":"image/png",
			"name":"ceramic_vase_03_nor_gl",
			"uri":"ceramic_vase_03_nor_gl.png"
		},
		{
			"mimeType":"image/jpeg",
			"name":"ceramic_vase_03_diff_1k",
			"uri":"ceramic_vase_03_diff_1k.jpg"
		}
	],
	"accessors":[
		{
			"bufferView":0,
			"componentType":5126,
			"count":2196,
			"max":[
				0.056227244436740875,
				0.41445663571357727,
				0.056227508932352066
			],
			"min":[
				-0.056227780878543854,
				1.7715454305289313e-05,
				-0.056227512657642365
			],
			"type":"VEC3"
		},
		{
			"bufferView":1,
			"componentType":5126,
			"count":2196,
			"type":"VEC3"
		},
		{
			"bufferView":2,
			"componentType":5126,
			"count":2196,
			"type":"VEC2"
		},
		{
			"bufferView":3,
			"componentType":5123,
			"count":8352,
			"type":"SCALAR"
		}
	],
	"bufferViews":[
		{
			"buffer":0,
			"byteLength":26352,
			"byteOffset":0,
			"target":34962
		},
		{
			"buffer":0,
			"byteLength":26352,
			"byteOffset":26352,
			"target":34962
		},
		{
			"buffer":0,
			"byteLength":17568,
			"byteOffset":52704,
			"target":34962
		},
		{
			"buffer":0,
			"byteLength":16704,
			"byteOffset":70272,
			"target":34963
		}
	],
	"samplers":[
		{
			"magFilter":9729,
			"minFilter":9987
		}
	],
	"buffers":[
		{
			"byteLength":86976,
			"uri":"cement_pole.bin"
		}
	]
}
