{
	"asset":{
		"generator":"Khronos glTF Blender I/O v4.0.44",
		"version":"2.0"
	},
	"scene":0,
	"scenes":[
		{
			"name":"Scene",
			"nodes":[
				0
			]
		}
	],
	"nodes":[
		{
			"mesh":0,
			"name":"GitHub",
			"rotation":[
				0.4939131736755371,
				-0.5023385882377625,
				0.49246299266815186,
				0.5110636353492737
			],
			"translation":[
				-0.0025634765625,
				0.038162969052791595,
				-0.11969459056854248
			]
		}
	],
	"meshes":[
		{
			"name":"GitHub",
			"primitives":[
				{
					"attributes":{
						"POSITION":0,
						"NORMAL":1,
						"TEXCOORD_0":2
					},
					"indices":3
				}
			]
		}
	],
	"accessors":[
		{
			"bufferView":0,
			"componentType":5126,
			"count":1927,
			"max":[
				2.997013807296753,
				0.009999999776482582,
				0.3190145492553711
			],
			"min":[
				0.039978839457035065,
				-0.009999999776482582,
				-0.40100446343421936
			],
			"type":"VEC3"
		},
		{
			"bufferView":1,
			"componentType":5126,
			"count":1927,
			"type":"VEC3"
		},
		{
			"bufferView":2,
			"componentType":5126,
			"count":1927,
			"type":"VEC2"
		},
		{
			"bufferView":3,
			"componentType":5123,
			"count":6768,
			"type":"SCALAR"
		}
	],
	"bufferViews":[
		{
			"buffer":0,
			"byteLength":23124,
			"byteOffset":0,
			"target":34962
		},
		{
			"buffer":0,
			"byteLength":23124,
			"byteOffset":23124,
			"target":34962
		},
		{
			"buffer":0,
			"byteLength":15416,
			"byteOffset":46248,
			"target":34962
		},
		{
			"buffer":0,
			"byteLength":13536,
			"byteOffset":61664,
			"target":34963
		}
	],
	"buffers":[
		{
			"byteLength":75200,
			"uri":"text_gitHub.bin"
		}
	]
}
